<svg width="40" height="40" viewBox="0 0 40 40" fill="none" xmlns="http://www.w3.org/2000/svg">
<circle cx="20" cy="20" r="20" fill="#312651"/>
<path d="M11.2281 17.0182H15.0866V28.627H11.2281V17.0182Z" fill="white"/>
<path d="M13.1828 11.4219C11.863 11.4219 11 12.2886 11 13.4277C11 14.5417 11.8373 15.4331 13.1322 15.4331H13.1573C14.503 15.4331 15.3404 14.5417 15.3404 13.4277C15.3153 12.2886 14.503 11.4219 13.1828 11.4219Z" fill="white"/>
<path d="M24.5578 16.7457C22.5105 16.7457 21.5931 17.8709 21.0804 18.662V17.0182H17.2217V28.627H21.0802V22.1441C21.0802 21.7971 21.1053 21.4506 21.2072 21.2025C21.4862 20.5094 22.121 19.7914 23.187 19.7914C24.5832 19.7914 25.1417 20.856 25.1417 22.4166V28.627H29V21.9707C29 18.4049 27.0963 16.7457 24.5578 16.7457Z" fill="white"/>
</svg>
