<svg width="40" height="40" viewBox="0 0 40 40" fill="none" xmlns="http://www.w3.org/2000/svg">
<circle cx="20" cy="20" r="20" fill="#312651"/>
<g clip-path="url(#clip0_15_40)">
<path d="M16.6257 27.3162C23.4186 27.3162 27.1332 21.6886 27.1332 16.8088C27.1332 16.6489 27.1299 16.4897 27.1227 16.3314C27.8437 15.8101 28.4705 15.1596 28.9649 14.4191C28.3032 14.7132 27.591 14.9111 26.8441 15.0005C27.6066 14.5432 28.192 13.8201 28.468 12.9579C27.7545 13.3809 26.9643 13.6882 26.123 13.8543C25.4491 13.1364 24.4896 12.6875 23.4272 12.6875C21.3879 12.6875 19.734 14.3414 19.734 16.38C19.734 16.6699 19.7664 16.9517 19.8297 17.2221C16.7604 17.0676 14.0387 15.5982 12.2174 13.3636C11.9003 13.9093 11.7174 14.5434 11.7174 15.2199C11.7174 16.501 12.3694 17.6322 13.3608 18.2938C12.7549 18.2752 12.1858 18.1089 11.6883 17.832C11.6877 17.8475 11.6877 17.8626 11.6877 17.8791C11.6877 19.6677 12.9607 21.161 14.6506 21.4994C14.3403 21.5838 14.0137 21.6293 13.6768 21.6293C13.4392 21.6293 13.2077 21.6059 12.9826 21.5627C13.4528 23.03 14.8162 24.0978 16.4326 24.1277C15.1686 25.1184 13.5763 25.7085 11.8458 25.7085C11.5481 25.7085 11.2539 25.6915 10.9648 25.6574C12.5992 26.705 14.5401 27.3164 16.6258 27.3164" fill="white"/>
</g>
<defs>
<clipPath id="clip0_15_40">
<rect width="18" height="18" fill="white" transform="translate(11 11)"/>
</clipPath>
</defs>
</svg>
