<svg width="40" height="40" viewBox="0 0 40 40" fill="none" xmlns="http://www.w3.org/2000/svg">
<circle cx="20" cy="20" r="20" fill="#312651"/>
<g clip-path="url(#clip0_15_39)">
<path d="M28.6291 15.6791C28.4216 14.908 27.8137 14.3002 27.0427 14.0926C25.6341 13.7071 19.9998 13.7071 19.9998 13.7071C19.9998 13.7071 14.3656 13.7071 12.9571 14.0779C12.2009 14.2854 11.5782 14.9082 11.3706 15.6791C11 17.0876 11 20.0085 11 20.0085C11 20.0085 11 22.9442 11.3706 24.338C11.5783 25.1089 12.1861 25.7169 12.9572 25.9245C14.3805 26.31 20 26.31 20 26.31C20 26.31 25.6341 26.31 27.0427 25.9392C27.8138 25.7317 28.4216 25.1238 28.6293 24.3528C28.9999 22.9442 28.9999 20.0234 28.9999 20.0234C28.9999 20.0234 29.0148 17.0876 28.6291 15.6791Z" fill="white"/>
<path d="M18.2059 22.707L22.8912 20.0085L18.2059 17.31V22.707Z" fill="#312651"/>
</g>
<defs>
<clipPath id="clip0_15_39">
<rect width="18" height="18" fill="white" transform="translate(11 11)"/>
</clipPath>
</defs>
</svg>
